<?xml version="1.0" encoding="utf-8"?>
<!-- Svg Vector Icons : http://www.onlinewebfonts.com/icon -->
<!DOCTYPE svg PUBLIC "-//W3C//DTD SVG 1.1//EN" "http://www.w3.org/Graphics/SVG/1.1/DTD/svg11.dtd">
<svg version="1.1" xmlns="http://www.w3.org/2000/svg" xmlns:xlink="http://www.w3.org/1999/xlink" x="0px" y="0px" viewBox="0 0 256 256" enable-background="new 0 0 256 256" xml:space="preserve">
<metadata> Svg Vector Icons : http://www.onlinewebfonts.com/icon </metadata>
<g><g><g><path fill="#000000" d="M77.8,10.9c-3.3,5.3-14.4,23.9-14.3,24c1.9,1.4,13.5,7.9,14.3,7.9c1,0,32.5-14.1,32.1-14.4c-0.2-0.2-29.1-17.5-30.2-18.1C78.8,9.8,78.5,9.9,77.8,10.9z"/><path fill="#000000" d="M109.5,45.5c-8.5,3.8-15.5,7.2-15.6,7.3c-0.3,0.3,16.2,10,17,10c0.5,0,31.7-13.9,32.1-14.4c0.4-0.3-16.3-10-17.2-10C125.3,38.4,118,41.6,109.5,45.5z"/><path fill="#000000" d="M153.7,60.3c-2.1,1-8.3,3.8-13.8,6.3c-5.5,2.5-10.7,4.9-11.5,5.4l-1.5,0.9l2.3,1.2c1.2,0.7,4.1,2.5,6.4,4.1c6.9,4.7,9.9,4.6,20.6-0.8c4-2.1,10-4.9,13.3-6.3c3.3-1.5,6.1-2.8,6.1-3c0-0.8-15.6-9.8-16.9-9.8C158,58.5,155.7,59.3,153.7,60.3z"/><path fill="#000000" d="M191.3,78.4c-1.5,0.4-31.4,14-31.4,14.3c0,0.2,1.1,0.9,2.6,1.6c1.4,0.8,4.1,2.4,6.1,3.7c7.3,4.9,8.8,5,16,1.6c2.7-1.3,9.1-4.3,14.3-6.6c5.2-2.3,9.6-4.4,9.9-4.6c0.4-0.3-13.7-9-15.8-9.8C192.5,78.3,191.8,78.3,191.3,78.4z"/><path fill="#000000" d="M40.9,96c-0.7,2.7-19.8,120.4-19.6,120.5c0.1,0.1,21.1,3.6,46.8,7.8c83.3,13.7,115.3,18.9,122.6,20.3c4,0.8,7.9,1.4,8.7,1.4h1.5l3.8-23.5c2.2-12.8,6.6-39.6,9.8-59.3l5.9-35.8l7.1-11.7c3.9-6.4,7.1-11.9,7.1-12.1c0-0.3-2.1-1.7-4.7-3.1c-4.2-2.3-4.8-2.5-6.3-2c-1.6,0.5-30.2,13.5-30.6,13.9c-0.1,0.1,2.7,1.9,6.2,4.1c3.5,2.2,6.5,4,6.6,4.1c0.8,0.7-1.1,0.6-8-0.5c-4.2-0.7-7.7-1.1-7.7-1.1c0,0.1,3.3,7.1,7.4,15.7c4.1,8.6,7.3,15.7,7.1,15.8c-0.2,0.2-3.9-0.3-8.3-1c-6.1-0.9-8.3-1.5-9.3-2.3c-0.7-0.6-4.3-7.6-8-15.7c-3.7-8-7-14.9-7.3-15.1c-0.5-0.5-19-3.8-19.4-3.5c-0.1,0.2,3.1,7.3,7.2,15.8c4.1,8.6,7.3,15.7,7.2,15.8c-0.2,0.1-2.2-0.2-4.6-0.6c-2.3-0.4-6.1-1-8.3-1.4c-2.2-0.3-4.4-0.9-4.9-1.2c-0.9-0.8-8.9-17.1-11.2-23c-2.7-6.8-5.7-9.4-11.9-10.1c-1.8-0.2-5-0.6-7.2-1s-4.1-0.4-4.2-0.3c-0.2,0.1,3,7.2,7,15.6c4,8.5,7.2,15.5,7,15.6c-0.3,0.3-15.4-2.1-16.9-2.7c-0.9-0.4-2.4-3-5.7-9.8c-2.5-5.1-5.2-11.1-6.1-13.2c-0.9-2.1-2.2-4.7-2.9-5.8c-1.6-2.5-5.9-4.8-9.1-4.8c-1.2,0-4.4-0.4-7-0.8c-2.6-0.5-4.8-0.8-4.9-0.7c-0.1,0.1,3.3,7.2,7.3,15.9c4.1,8.6,7.4,15.8,7.4,15.8c-0.1,0.1-3.1-0.4-6.9-1c-3.7-0.6-7.5-1.2-8.4-1.4c-0.9-0.1-2.2-0.8-2.8-1.5c-1.2-1.3-8.6-16.8-10.8-22.6c-2.8-7.4-5.1-9.3-12.7-10.3C42.3,94.5,41.3,94.6,40.9,96z M123.6,149c41.8,6.8,76.7,12.6,77.5,12.7l1.4,0.3l-0.8,5.1c-0.4,2.8-1.1,5.1-1.4,5.1c-1.6,0.1-154.6-25.1-155-25.5c-0.3-0.2-0.2-2.3,0.2-4.9c0.7-4.8,0.9-5.3,1.6-5.3C47.4,136.5,81.8,142.1,123.6,149z M115.4,209.1c41.8,6.8,76.3,12.7,76.6,13c0.5,0.5-0.5,9.6-1.2,10c-0.2,0.1-3.7-0.4-7.9-1c-4.2-0.7-39-6.4-77.5-12.7c-38.4-6.3-70-11.5-70.1-11.7c-0.3-0.3,1-9.5,1.4-10.2c0.1-0.2,0.8-0.3,1.4-0.1C38.8,196.6,73.6,202.3,115.4,209.1z"/></g></g></g>
</svg>